<svg width="180" height="43" viewBox="0 0 180 43" fill="none" xmlns="http://www.w3.org/2000/svg">
<g clip-path="url(#clip0_635_248)">
<path d="M0 0V40.7365H10.1171V10.1825H20.2341V40.7332H30.3512V10.1825H40.4683V40.7332H50.5853V10.1825H60.7024V40.7332H70.8195V10.1825H80.9365V40.7332H91.0536V30.5507H101.171V40.7332H111.288V0H0ZM101.184 20.3682H91.0668V10.1858H101.184V20.3682Z" fill="black"/>
<path d="M121.454 18.0916V10.166H123.739L125.461 17.2752H125.642L127.363 10.166H129.649V18.0916H128.468V11.0256H128.287L126.575 18.0916H124.527L122.819 11.0256H122.638V18.0916H121.457H121.454Z" fill="black"/>
<path d="M132.93 18.2509C132.531 18.2509 132.178 18.1845 131.868 18.0484C131.558 17.9123 131.311 17.7132 131.126 17.4477C130.941 17.1822 130.849 16.8635 130.849 16.4852C130.849 16.1068 130.941 15.7816 131.126 15.5293C131.311 15.2771 131.561 15.0846 131.881 14.9585C132.201 14.829 132.561 14.766 132.966 14.766H134.655V14.4042C134.655 14.079 134.556 13.8201 134.361 13.6243C134.167 13.4285 133.866 13.3289 133.461 13.3289C133.055 13.3289 132.758 13.4218 132.551 13.611C132.343 13.8002 132.201 14.0458 132.135 14.3478L131.057 13.996C131.146 13.694 131.291 13.4218 131.489 13.1762C131.687 12.9306 131.951 12.7315 132.28 12.5821C132.61 12.4328 133.009 12.3564 133.474 12.3564C134.193 12.3564 134.76 12.5423 135.172 12.9107C135.584 13.2791 135.792 13.8068 135.792 14.4839V16.7806C135.792 17.0063 135.898 17.1191 136.109 17.1191H136.58V18.0915H135.713C135.449 18.0915 135.238 18.0252 135.073 17.8891C134.908 17.753 134.826 17.5672 134.826 17.3348V17.3016H134.658C134.599 17.4145 134.506 17.5472 134.387 17.6966C134.269 17.8493 134.091 17.9787 133.86 18.0882C133.626 18.1978 133.319 18.2509 132.937 18.2509H132.93ZM133.098 17.2884C133.563 17.2884 133.939 17.1556 134.223 16.8868C134.506 16.6179 134.651 16.2495 134.651 15.7816V15.6687H133.032C132.725 15.6687 132.478 15.7351 132.29 15.8679C132.102 16.0006 132.01 16.1931 132.01 16.452C132.01 16.7109 132.106 16.9133 132.303 17.0627C132.498 17.2154 132.765 17.2884 133.101 17.2884H133.098Z" fill="black"/>
<path d="M139.568 18.1946C139.149 18.1946 138.773 18.1017 138.443 17.9125C138.114 17.7233 137.853 17.4545 137.668 17.1093C137.481 16.7608 137.388 16.346 137.388 15.8647V12.5126H138.546V15.7851C138.546 16.2696 138.664 16.6247 138.905 16.8538C139.146 17.0828 139.479 17.1989 139.908 17.1989C140.379 17.1989 140.762 17.0396 141.049 16.7177C141.339 16.3957 141.481 15.9344 141.481 15.3304V12.5093H142.638V18.0917H141.5V17.2553H141.319C141.213 17.481 141.025 17.6968 140.758 17.8959C140.491 18.095 140.089 18.1946 139.565 18.1946H139.568Z" fill="black"/>
<path d="M144.237 18.0916V12.5092H145.375V13.1663H145.556C145.645 12.934 145.79 12.7614 145.988 12.6519C146.186 12.5424 146.434 12.4893 146.724 12.4893H147.387V13.5414H146.678C146.302 13.5414 145.995 13.6442 145.754 13.8533C145.513 14.0624 145.395 14.381 145.395 14.8092V18.0916H144.237Z" fill="black"/>
<path d="M148.333 11.8286L149.177 10.209H150.516L149.378 11.8286H148.333ZM148.478 18.0914V12.509H149.636V18.0914H148.478Z" fill="black"/>
<path d="M153.823 18.2508C153.289 18.2508 152.808 18.1379 152.379 17.9122C151.947 17.6865 151.607 17.358 151.353 16.9265C151.103 16.495 150.978 15.9806 150.978 15.3766V15.2305C150.978 14.6265 151.103 14.1121 151.353 13.6839C151.604 13.2591 151.947 12.9305 152.379 12.6982C152.811 12.4692 153.292 12.353 153.823 12.353C154.354 12.353 154.809 12.4526 155.185 12.6484C155.561 12.8442 155.861 13.1064 156.092 13.4284C156.32 13.7536 156.468 14.1121 156.537 14.5037L155.413 14.7427C155.377 14.4937 155.297 14.268 155.175 14.0623C155.053 13.8565 154.885 13.6972 154.668 13.5744C154.45 13.4549 154.176 13.3919 153.846 13.3919C153.517 13.3919 153.233 13.4649 152.976 13.6109C152.719 13.7569 152.514 13.9693 152.363 14.2448C152.211 14.5203 152.138 14.8555 152.138 15.2471V15.35C152.138 15.7417 152.214 16.0802 152.363 16.359C152.511 16.6378 152.715 16.8502 152.976 16.9929C153.233 17.1356 153.527 17.2086 153.846 17.2086C154.335 17.2086 154.704 17.0825 154.961 16.8303C155.218 16.578 155.377 16.2561 155.446 15.8611L156.57 16.1233C156.481 16.5083 156.32 16.8634 156.092 17.1887C155.865 17.514 155.561 17.7728 155.185 17.9653C154.809 18.1578 154.358 18.2541 153.823 18.2541V18.2508Z" fill="black"/>
<path d="M158.378 11.7491C158.153 11.7491 157.962 11.6761 157.81 11.5268C157.655 11.3807 157.58 11.1882 157.58 10.9559C157.58 10.7236 157.655 10.5311 157.81 10.3851C157.965 10.239 158.153 10.166 158.378 10.166C158.602 10.166 158.8 10.239 158.951 10.3851C159.103 10.5311 159.176 10.7236 159.176 10.9559C159.176 11.1882 159.1 11.3807 158.951 11.5268C158.803 11.6728 158.608 11.7491 158.378 11.7491ZM157.794 18.0916V12.5092H158.951V18.0916H157.794Z" fill="black"/>
<path d="M163.159 18.2511C162.605 18.2511 162.11 18.135 161.678 17.906C161.246 17.677 160.907 17.3451 160.659 16.9136C160.412 16.4822 160.287 15.9744 160.287 15.3836V15.2143C160.287 14.6269 160.409 14.1191 160.659 13.6909C160.907 13.2661 161.246 12.9342 161.678 12.7019C162.11 12.4696 162.602 12.3501 163.159 12.3501C163.716 12.3501 164.207 12.4663 164.643 12.7019C165.078 12.9375 165.418 13.2661 165.665 13.6909C165.912 14.1191 166.038 14.6236 166.038 15.2143V15.3836C166.038 15.971 165.916 16.4822 165.665 16.9136C165.418 17.3451 165.075 17.6737 164.643 17.906C164.207 18.135 163.713 18.2511 163.159 18.2511ZM163.159 17.209C163.67 17.209 164.082 17.0464 164.402 16.7178C164.722 16.3892 164.88 15.9345 164.88 15.3537V15.2508C164.88 14.67 164.722 14.2153 164.409 13.8868C164.095 13.5582 163.677 13.3956 163.159 13.3956C162.641 13.3956 162.245 13.5582 161.926 13.8868C161.606 14.2153 161.447 14.67 161.447 15.2508V15.3537C161.447 15.9345 161.606 16.3892 161.926 16.7178C162.245 17.0464 162.654 17.209 163.159 17.209Z" fill="black"/>
<path d="M123.334 29.4158V22.5988H120.914V21.4902H126.965V22.5988H124.544V29.4158H123.331H123.334Z" fill="black"/>
<path d="M128.735 29.5717C128.336 29.5717 127.983 29.5053 127.673 29.3692C127.363 29.2331 127.116 29.034 126.931 28.7685C126.747 28.503 126.654 28.1843 126.654 27.806C126.654 27.4276 126.747 27.1024 126.931 26.8501C127.116 26.5979 127.367 26.4054 127.686 26.2793C128.006 26.1498 128.366 26.0868 128.771 26.0868H130.46V25.725C130.46 25.3998 130.361 25.1409 130.166 24.9451C129.972 24.7493 129.672 24.6497 129.266 24.6497C128.86 24.6497 128.564 24.7426 128.356 24.9318C128.148 25.121 128.006 25.3666 127.94 25.6686L126.862 25.3168C126.951 25.0148 127.096 24.7426 127.294 24.497C127.492 24.2514 127.756 24.0523 128.085 23.9029C128.415 23.7536 128.814 23.6772 129.279 23.6772C129.998 23.6772 130.565 23.8631 130.977 24.2315C131.39 24.5999 131.597 25.1276 131.597 25.8047V28.1014C131.597 28.3271 131.703 28.4399 131.914 28.4399H132.386V29.4124H131.518C131.254 29.4124 131.043 29.346 130.879 29.2099C130.714 29.0738 130.631 28.888 130.631 28.6556V28.6224H130.463C130.404 28.7353 130.311 28.868 130.193 29.0174C130.074 29.1701 129.896 29.2995 129.665 29.409C129.431 29.5186 129.124 29.5717 128.742 29.5717H128.735ZM128.903 28.6092C129.368 28.6092 129.744 28.4764 130.028 28.2076C130.311 27.9387 130.456 27.5703 130.456 27.1024V26.9895H128.837C128.531 26.9895 128.283 27.0559 128.095 27.1887C127.907 27.3214 127.815 27.5139 127.815 27.7728C127.815 28.0317 127.911 28.2341 128.109 28.3835C128.303 28.5362 128.57 28.6092 128.907 28.6092H128.903Z" fill="black"/>
<path d="M133.392 29.4157V23.8333H134.529V24.4904H134.711C134.816 24.2946 134.984 24.122 135.218 23.9693C135.453 23.82 135.766 23.7437 136.165 23.7437C136.564 23.7437 136.91 23.8299 137.161 23.9992C137.411 24.1685 137.603 24.3875 137.728 24.6497H137.909C138.038 24.3942 138.223 24.1784 138.467 24.0058C138.711 23.8333 139.057 23.747 139.509 23.747C139.868 23.747 140.188 23.82 140.465 23.966C140.742 24.1121 140.963 24.3311 141.128 24.6232C141.293 24.9152 141.375 25.2737 141.375 25.7051V29.419H140.218V25.7947C140.218 25.4562 140.125 25.194 139.941 25.0082C139.756 24.8223 139.495 24.7294 139.159 24.7294C138.8 24.7294 138.509 24.8455 138.292 25.0812C138.074 25.3168 137.965 25.652 137.965 26.0901V29.419H136.808V25.7947C136.808 25.4562 136.716 25.194 136.531 25.0082C136.346 24.8223 136.086 24.7294 135.749 24.7294C135.39 24.7294 135.1 24.8455 134.882 25.0812C134.664 25.3168 134.556 25.652 134.556 26.0901V29.419H133.398L133.392 29.4157Z" fill="black"/>
<path d="M145.464 29.5716C144.9 29.5716 144.409 29.4521 143.99 29.2164C143.571 28.9775 143.241 28.6423 143.007 28.2075C142.77 27.7727 142.654 27.2682 142.654 26.6974V26.5613C142.654 25.9805 142.77 25.4727 143.004 25.0379C143.235 24.6031 143.561 24.2679 143.977 24.029C144.392 23.79 144.874 23.6738 145.421 23.6738C145.968 23.6738 146.42 23.7933 146.822 24.029C147.225 24.2679 147.538 24.5965 147.762 25.0213C147.987 25.4428 148.099 25.9373 148.099 26.5049V26.9463H143.835C143.851 27.4375 144.013 27.8291 144.323 28.1179C144.633 28.4099 145.022 28.5526 145.487 28.5526C145.922 28.5526 146.249 28.4564 146.473 28.2573C146.694 28.0614 146.865 27.8358 146.984 27.5769L147.94 28.0747C147.835 28.2871 147.683 28.5095 147.485 28.7418C147.287 28.9775 147.027 29.1733 146.704 29.3293C146.381 29.4886 145.968 29.5682 145.467 29.5682L145.464 29.5716ZM143.845 26.0502H146.915C146.885 25.6287 146.733 25.2968 146.466 25.0578C146.199 24.8189 145.843 24.7027 145.408 24.7027C144.973 24.7027 144.62 24.8222 144.346 25.0578C144.072 25.2968 143.904 25.6254 143.845 26.0502Z" fill="black"/>
<path d="M149.378 29.4158V23.8334H150.516V24.4905H150.697C150.786 24.2582 150.932 24.0856 151.129 23.9761C151.327 23.8666 151.575 23.8135 151.865 23.8135H152.528V24.8656H151.819C151.443 24.8656 151.136 24.9685 150.895 25.1776C150.655 25.3866 150.536 25.7053 150.536 26.1334V29.4158H149.378Z" fill="black"/>
<path d="M120.87 40.7366L123.119 32.811H125.256L127.495 40.7366H126.246L125.728 38.8681H122.645L122.127 40.7366H120.867H120.87ZM122.951 37.7363H125.424L124.277 33.5711H124.096L122.948 37.7363H122.951Z" fill="black"/>
<path d="M130.783 40.8959C130.325 40.8959 129.903 40.7831 129.51 40.5574C129.118 40.3317 128.808 40.0031 128.571 39.5783C128.333 39.1535 128.218 38.6357 128.218 38.0317V37.8624C128.218 37.265 128.333 36.7539 128.567 36.3225C128.798 35.891 129.111 35.5624 129.501 35.3367C129.89 35.1111 130.318 34.9982 130.783 34.9982C131.143 34.9982 131.446 35.0447 131.69 35.1343C131.934 35.2239 132.135 35.3401 132.29 35.4795C132.449 35.6188 132.567 35.7649 132.65 35.9142H132.831V32.811H133.989V40.7366H132.851V39.9434H132.67C132.528 40.1857 132.31 40.4047 132.023 40.6006C131.733 40.7964 131.321 40.8959 130.78 40.8959H130.783ZM131.11 39.877C131.611 39.877 132.027 39.7144 132.353 39.3891C132.679 39.0639 132.841 38.5992 132.841 37.9952V37.8923C132.841 37.2949 132.679 36.8369 132.356 36.5116C132.033 36.1864 131.618 36.0238 131.106 36.0238C130.595 36.0238 130.2 36.1864 129.873 36.5116C129.547 36.8369 129.385 37.2982 129.385 37.8923V37.9952C129.385 38.5992 129.547 39.0639 129.873 39.3891C130.2 39.7144 130.609 39.877 131.106 39.877H131.11Z" fill="black"/>
<path d="M136.867 40.7367L135.001 35.1543H136.228L137.702 39.8771H137.883L139.357 35.1543H140.584L138.717 40.7367H136.871H136.867Z" fill="black"/>
<path d="M144 40.8962C143.446 40.8962 142.952 40.78 142.52 40.551C142.088 40.322 141.748 39.9901 141.501 39.5586C141.253 39.1272 141.128 38.6194 141.128 38.0286V37.8593C141.128 37.2719 141.25 36.7641 141.501 36.336C141.748 35.9111 142.088 35.5792 142.52 35.3469C142.952 35.1146 143.443 34.9951 144 34.9951C144.557 34.9951 145.049 35.1113 145.484 35.3469C145.919 35.5826 146.259 35.9111 146.506 36.336C146.754 36.7641 146.879 37.2686 146.879 37.8593V38.0286C146.879 38.6161 146.757 39.1272 146.506 39.5586C146.259 39.9901 145.916 40.3187 145.484 40.551C145.049 40.78 144.554 40.8962 144 40.8962ZM144 39.854C144.511 39.854 144.923 39.6914 145.243 39.3628C145.563 39.0342 145.721 38.5796 145.721 37.9987V37.8959C145.721 37.315 145.563 36.8604 145.25 36.5318C144.937 36.2032 144.518 36.0406 144 36.0406C143.482 36.0406 143.087 36.2032 142.767 36.5318C142.447 36.8604 142.289 37.315 142.289 37.8959V37.9987C142.289 38.5796 142.447 39.0342 142.767 39.3628C143.087 39.6914 143.496 39.854 144 39.854Z" fill="black"/>
<path d="M147.937 37.9751V37.8059C147.937 37.2184 148.056 36.7139 148.29 36.2991C148.528 35.8842 148.841 35.5623 149.23 35.3366C149.619 35.1109 150.048 34.998 150.513 34.998C151.054 34.998 151.466 35.1009 151.756 35.3034C152.043 35.5058 152.257 35.7249 152.392 35.9605H152.574V35.1574H153.698V41.8815C153.698 42.22 153.599 42.4922 153.402 42.698C153.204 42.9004 152.93 43.0033 152.587 43.0033H148.851V41.9844H152.224C152.442 41.9844 152.551 41.8715 152.551 41.6459V39.8669H152.369C152.287 40.003 152.172 40.1424 152.02 40.2851C151.868 40.4278 151.674 40.544 151.43 40.6369C151.186 40.7265 150.879 40.773 150.513 40.773C150.048 40.773 149.619 40.6601 149.223 40.4378C148.831 40.2154 148.518 39.8935 148.284 39.4753C148.05 39.0571 147.934 38.5559 147.934 37.9751H147.937ZM150.829 39.7507C151.331 39.7507 151.746 39.5914 152.073 39.2695C152.399 38.9476 152.561 38.5062 152.561 37.9386V37.8357C152.561 37.2549 152.399 36.8069 152.076 36.4949C151.753 36.1829 151.337 36.0236 150.826 36.0236C150.315 36.0236 149.919 36.1796 149.593 36.4949C149.266 36.8102 149.105 37.2549 149.105 37.8357V37.9386C149.105 38.5062 149.266 38.9476 149.593 39.2695C149.919 39.5914 150.328 39.7507 150.826 39.7507H150.829Z" fill="black"/>
<path d="M157.015 40.8959C156.616 40.8959 156.264 40.8295 155.954 40.6934C155.644 40.5573 155.396 40.3582 155.212 40.0927C155.027 39.8272 154.935 39.5086 154.935 39.1302C154.935 38.7519 155.027 38.4266 155.212 38.1744C155.396 37.9221 155.647 37.7296 155.967 37.6035C156.287 37.4741 156.646 37.411 157.052 37.411H158.74V37.0492C158.74 36.724 158.641 36.4651 158.447 36.2693C158.252 36.0735 157.952 35.9739 157.546 35.9739C157.141 35.9739 156.844 36.0668 156.636 36.256C156.428 36.4452 156.287 36.6908 156.221 36.9928L155.142 36.641C155.231 36.339 155.376 36.0668 155.574 35.8212C155.772 35.5756 156.036 35.3765 156.366 35.2272C156.695 35.0778 157.095 35.0015 157.559 35.0015C158.278 35.0015 158.846 35.1873 159.258 35.5557C159.67 35.9241 159.878 36.4518 159.878 37.1289V39.4256C159.878 39.6513 159.983 39.7641 160.194 39.7641H160.666V40.7366H159.799C159.535 40.7366 159.324 40.6702 159.159 40.5341C158.994 40.398 158.911 40.2122 158.911 39.9799V39.9467H158.743C158.684 40.0595 158.592 40.1923 158.473 40.3416C158.354 40.4943 158.176 40.6237 157.945 40.7333C157.711 40.8428 157.404 40.8959 157.022 40.8959H157.015ZM157.187 39.9334C157.652 39.9334 158.028 39.8006 158.311 39.5318C158.595 39.263 158.74 38.8946 158.74 38.4266V38.3138H157.121C156.814 38.3138 156.567 38.3801 156.379 38.5129C156.191 38.6456 156.099 38.8381 156.099 39.097C156.099 39.3559 156.194 39.5583 156.392 39.7077C156.587 39.8604 156.854 39.9334 157.19 39.9334H157.187Z" fill="black"/>
<path d="M163.835 40.8959C163.377 40.8959 162.955 40.7831 162.562 40.5574C162.17 40.3317 161.86 40.0031 161.622 39.5783C161.385 39.1535 161.27 38.6357 161.27 38.0317V37.8624C161.27 37.265 161.385 36.7539 161.619 36.3225C161.85 35.891 162.163 35.5624 162.552 35.3367C162.941 35.1111 163.37 34.9982 163.835 34.9982C164.195 34.9982 164.498 35.0447 164.742 35.1343C164.986 35.2239 165.187 35.3401 165.342 35.4795C165.5 35.6188 165.619 35.7649 165.702 35.9142H165.883V32.811H167.04V40.7366H165.903V39.9434H165.721C165.58 40.1857 165.362 40.4047 165.075 40.6006C164.785 40.7964 164.373 40.8959 163.832 40.8959H163.835ZM164.162 39.877C164.663 39.877 165.078 39.7144 165.405 39.3891C165.731 39.0639 165.893 38.5992 165.893 37.9952V37.8923C165.893 37.2949 165.731 36.8369 165.408 36.5116C165.085 36.1864 164.669 36.0238 164.158 36.0238C163.647 36.0238 163.251 36.1864 162.925 36.5116C162.598 36.8369 162.437 37.2982 162.437 37.8923V37.9952C162.437 38.5992 162.598 39.0639 162.925 39.3891C163.251 39.7144 163.66 39.877 164.158 39.877H164.162Z" fill="black"/>
<path d="M171.238 40.8962C170.684 40.8962 170.189 40.78 169.757 40.551C169.325 40.322 168.986 39.9901 168.738 39.5586C168.491 39.1272 168.366 38.6194 168.366 38.0286V37.8593C168.366 37.2719 168.488 36.7641 168.738 36.336C168.986 35.9111 169.325 35.5792 169.757 35.3469C170.189 35.1146 170.681 34.9951 171.238 34.9951C171.795 34.9951 172.287 35.1113 172.722 35.3469C173.157 35.5826 173.497 35.9111 173.744 36.336C173.991 36.7641 174.117 37.2686 174.117 37.8593V38.0286C174.117 38.6161 173.995 39.1272 173.744 39.5586C173.497 39.9901 173.154 40.3187 172.722 40.551C172.287 40.78 171.792 40.8962 171.238 40.8962ZM171.238 39.854C171.749 39.854 172.161 39.6914 172.481 39.3628C172.801 39.0342 172.959 38.5796 172.959 37.9987V37.8959C172.959 37.315 172.801 36.8604 172.488 36.5318C172.174 36.2032 171.756 36.0406 171.238 36.0406C170.72 36.0406 170.324 36.2032 170.005 36.5318C169.685 36.8604 169.526 37.315 169.526 37.8959V37.9987C169.526 38.5796 169.685 39.0342 170.005 39.3628C170.324 39.6914 170.733 39.854 171.238 39.854Z" fill="black"/>
<path d="M177.718 40.896C177.012 40.896 176.428 40.7367 175.963 40.4214C175.498 40.1028 175.215 39.6248 175.109 38.9843L176.191 38.7254C176.25 39.0341 176.353 39.2797 176.494 39.4622C176.636 39.6447 176.814 39.7709 177.029 39.8472C177.243 39.9235 177.474 39.96 177.721 39.96C178.087 39.96 178.371 39.887 178.572 39.7443C178.77 39.6016 178.869 39.4157 178.869 39.19C178.869 38.9644 178.776 38.7984 178.588 38.6922C178.4 38.586 178.123 38.4997 177.757 38.4333L177.375 38.367C176.999 38.3006 176.659 38.201 176.353 38.0716C176.046 37.9421 175.802 37.7662 175.621 37.5405C175.439 37.3149 175.35 37.0228 175.35 36.6677C175.35 36.14 175.545 35.7284 175.934 35.4397C176.323 35.1476 176.841 35.0049 177.487 35.0049C178.133 35.0049 178.621 35.1476 179.024 35.4297C179.426 35.7118 179.686 36.0968 179.805 36.5781L178.724 36.8834C178.658 36.5449 178.512 36.3059 178.295 36.1632C178.077 36.0238 177.807 35.9541 177.484 35.9541C177.16 35.9541 176.92 36.0138 176.742 36.13C176.564 36.2462 176.471 36.4121 176.471 36.6212C176.471 36.8469 176.56 37.0128 176.735 37.119C176.91 37.2252 177.151 37.3049 177.451 37.358L177.843 37.4244C178.242 37.4908 178.605 37.587 178.935 37.7065C179.264 37.826 179.525 38.0019 179.716 38.2276C179.907 38.4532 180.003 38.7553 180.003 39.1336C180.003 39.6912 179.795 40.126 179.383 40.4346C178.971 40.7433 178.417 40.8993 177.718 40.8993V40.896Z" fill="black"/>
</g>
<defs>
<clipPath id="clip0_635_248">
<rect width="180" height="43" fill="white"/>
</clipPath>
</defs>
</svg>
